<svg width="100" height="32" viewBox="0 0 100 32" fill="none" xmlns="http://www.w3.org/2000/svg">
<rect y="0.265625" width="100" height="30.7692" rx="6" fill="black"/>
<path fill-rule="evenodd" clip-rule="evenodd" d="M19.82 16.094C19.8369 14.789 20.521 13.5836 21.6328 12.9001C20.9282 11.8939 19.7904 11.2788 18.5627 11.2404C17.2709 11.1048 16.0187 12.0133 15.3604 12.0133C14.6895 12.0133 13.676 11.2538 12.5847 11.2763C11.1488 11.3227 9.84255 12.1193 9.14396 13.3746C7.65626 15.9503 8.76595 19.7358 10.191 21.8178C10.904 22.8373 11.7373 23.9761 12.8277 23.9357C13.8946 23.8914 14.2931 23.2553 15.5811 23.2553C16.857 23.2553 17.2309 23.9357 18.3434 23.91C19.4883 23.8914 20.2096 22.886 20.8976 21.8568C21.4099 21.1304 21.8041 20.3275 22.0656 19.478C20.7058 18.9028 19.8216 17.5704 19.82 16.094Z" fill="white"/>
<path fill-rule="evenodd" clip-rule="evenodd" d="M17.7161 9.87259C18.3404 9.1232 18.6479 8.15999 18.5734 7.1875C17.6197 7.28767 16.7387 7.74348 16.1061 8.46412C15.4813 9.17513 15.1648 10.1053 15.2263 11.0498C16.1928 11.0598 17.1105 10.6259 17.7161 9.87259Z" fill="white"/>
<path d="M32.1496 11.8561H33.4136C33.499 11.8561 33.6056 11.8508 33.7336 11.8401C33.8616 11.8241 33.9976 11.7921 34.1416 11.7441C34.2856 11.6908 34.427 11.6161 34.5656 11.5201C34.7096 11.4241 34.8376 11.2934 34.9496 11.1281C35.0616 10.9628 35.1523 10.7574 35.2216 10.5121C35.2963 10.2614 35.3336 9.96009 35.3336 9.60809C35.3336 9.26676 35.299 8.96276 35.2296 8.69609C35.1656 8.42409 35.0563 8.19476 34.9016 8.00809C34.7523 7.81609 34.5576 7.67209 34.3176 7.57609C34.0776 7.47476 33.7816 7.42409 33.4296 7.42409H32.1496V11.8561ZM31.3896 6.78409H33.3496C34.2296 6.78409 34.907 7.00809 35.3816 7.45609C35.8563 7.90409 36.0936 8.58676 36.0936 9.50409C36.0936 9.98409 36.0403 10.4108 35.9336 10.7841C35.827 11.1521 35.6616 11.4641 35.4376 11.7201C35.2136 11.9708 34.9283 12.1628 34.5816 12.2961C34.235 12.4294 33.8243 12.4961 33.3496 12.4961H31.3896V6.78409ZM37.5664 10.4321C37.5664 10.6828 37.5984 10.9068 37.6624 11.1041C37.7318 11.2961 37.8251 11.4588 37.9424 11.5921C38.0598 11.7201 38.1958 11.8188 38.3504 11.8881C38.5104 11.9574 38.6784 11.9921 38.8544 11.9921C39.0304 11.9921 39.1958 11.9574 39.3504 11.8881C39.5104 11.8188 39.6491 11.7201 39.7664 11.5921C39.8838 11.4588 39.9744 11.2961 40.0384 11.1041C40.1078 10.9068 40.1424 10.6828 40.1424 10.4321C40.1424 10.1814 40.1078 9.96009 40.0384 9.76809C39.9744 9.57076 39.8838 9.40543 39.7664 9.27209C39.6491 9.13876 39.5104 9.03743 39.3504 8.96809C39.1958 8.89876 39.0304 8.86409 38.8544 8.86409C38.6784 8.86409 38.5104 8.89876 38.3504 8.96809C38.1958 9.03743 38.0598 9.13876 37.9424 9.27209C37.8251 9.40543 37.7318 9.57076 37.6624 9.76809C37.5984 9.96009 37.5664 10.1814 37.5664 10.4321ZM36.8464 10.4321C36.8464 10.1281 36.8891 9.84543 36.9744 9.58409C37.0598 9.31743 37.1878 9.08809 37.3584 8.89609C37.5291 8.69876 37.7398 8.54409 37.9904 8.43209C38.2411 8.32009 38.5291 8.26409 38.8544 8.26409C39.1851 8.26409 39.4731 8.32009 39.7184 8.43209C39.9691 8.54409 40.1798 8.69876 40.3504 8.89609C40.5211 9.08809 40.6491 9.31743 40.7344 9.58409C40.8198 9.84543 40.8624 10.1281 40.8624 10.4321C40.8624 10.7361 40.8198 11.0188 40.7344 11.2801C40.6491 11.5414 40.5211 11.7708 40.3504 11.9681C40.1798 12.1601 39.9691 12.3121 39.7184 12.4241C39.4731 12.5308 39.1851 12.5841 38.8544 12.5841C38.5291 12.5841 38.2411 12.5308 37.9904 12.4241C37.7398 12.3121 37.5291 12.1601 37.3584 11.9681C37.1878 11.7708 37.0598 11.5414 36.9744 11.2801C36.8891 11.0188 36.8464 10.7361 36.8464 10.4321ZM45.9202 12.4961H45.2002L44.3602 9.20809H44.3442L43.5122 12.4961H42.7762L41.4482 8.36009H42.2002L43.1362 11.7441H43.1522L43.9842 8.36009H44.7282L45.5922 11.7441H45.6082L46.5362 8.36009H47.2402L45.9202 12.4961ZM48.0467 8.36009H48.6867V9.01609H48.7027C48.9854 8.51476 49.4334 8.26409 50.0467 8.26409C50.3187 8.26409 50.5454 8.30143 50.7267 8.37609C50.908 8.45076 51.0547 8.55476 51.1667 8.68809C51.2787 8.82143 51.356 8.98143 51.3987 9.16809C51.4467 9.34943 51.4707 9.55209 51.4707 9.77609V12.4961H50.7907V9.69609C50.7907 9.44009 50.716 9.23743 50.5667 9.08809C50.4174 8.93876 50.212 8.86409 49.9507 8.86409C49.7427 8.86409 49.5614 8.89609 49.4067 8.96009C49.2574 9.02409 49.132 9.11476 49.0307 9.23209C48.9294 9.34943 48.852 9.48809 48.7987 9.64809C48.7507 9.80276 48.7267 9.97343 48.7267 10.1601V12.4961H48.0467V8.36009ZM52.692 6.78409H53.372V12.4961H52.692V6.78409ZM55.0814 10.4321C55.0814 10.6828 55.1134 10.9068 55.1774 11.1041C55.2468 11.2961 55.3401 11.4588 55.4574 11.5921C55.5748 11.7201 55.7108 11.8188 55.8654 11.8881C56.0254 11.9574 56.1934 11.9921 56.3694 11.9921C56.5454 11.9921 56.7108 11.9574 56.8654 11.8881C57.0254 11.8188 57.1641 11.7201 57.2814 11.5921C57.3988 11.4588 57.4894 11.2961 57.5534 11.1041C57.6228 10.9068 57.6574 10.6828 57.6574 10.4321C57.6574 10.1814 57.6228 9.96009 57.5534 9.76809C57.4894 9.57076 57.3988 9.40543 57.2814 9.27209C57.1641 9.13876 57.0254 9.03743 56.8654 8.96809C56.7108 8.89876 56.5454 8.86409 56.3694 8.86409C56.1934 8.86409 56.0254 8.89876 55.8654 8.96809C55.7108 9.03743 55.5748 9.13876 55.4574 9.27209C55.3401 9.40543 55.2468 9.57076 55.1774 9.76809C55.1134 9.96009 55.0814 10.1814 55.0814 10.4321ZM54.3614 10.4321C54.3614 10.1281 54.4041 9.84543 54.4894 9.58409C54.5748 9.31743 54.7028 9.08809 54.8734 8.89609C55.0441 8.69876 55.2548 8.54409 55.5054 8.43209C55.7561 8.32009 56.0441 8.26409 56.3694 8.26409C56.7001 8.26409 56.9881 8.32009 57.2334 8.43209C57.4841 8.54409 57.6948 8.69876 57.8654 8.89609C58.0361 9.08809 58.1641 9.31743 58.2494 9.58409C58.3348 9.84543 58.3774 10.1281 58.3774 10.4321C58.3774 10.7361 58.3348 11.0188 58.2494 11.2801C58.1641 11.5414 58.0361 11.7708 57.8654 11.9681C57.6948 12.1601 57.4841 12.3121 57.2334 12.4241C56.9881 12.5308 56.7001 12.5841 56.3694 12.5841C56.0441 12.5841 55.7561 12.5308 55.5054 12.4241C55.2548 12.3121 55.0441 12.1601 54.8734 11.9681C54.7028 11.7708 54.5748 11.5414 54.4894 11.2801C54.4041 11.0188 54.3614 10.7361 54.3614 10.4321ZM63.0032 12.4801C62.8859 12.5494 62.7232 12.5841 62.5152 12.5841C62.3392 12.5841 62.1979 12.5361 62.0912 12.4401C61.9899 12.3388 61.9392 12.1761 61.9392 11.9521C61.7525 12.1761 61.5339 12.3388 61.2832 12.4401C61.0379 12.5361 60.7712 12.5841 60.4832 12.5841C60.2965 12.5841 60.1179 12.5628 59.9472 12.5201C59.7819 12.4774 59.6379 12.4108 59.5152 12.3201C59.3925 12.2294 59.2939 12.1121 59.2192 11.9681C59.1499 11.8188 59.1152 11.6401 59.1152 11.4321C59.1152 11.1974 59.1552 11.0054 59.2352 10.8561C59.3152 10.7068 59.4192 10.5868 59.5472 10.4961C59.6805 10.4001 59.8299 10.3281 59.9952 10.2801C60.1659 10.2321 60.3392 10.1921 60.5152 10.1601C60.7019 10.1228 60.8779 10.0961 61.0432 10.0801C61.2139 10.0588 61.3632 10.0321 61.4912 10.0001C61.6192 9.96276 61.7205 9.91209 61.7952 9.84809C61.8699 9.77876 61.9072 9.68009 61.9072 9.55209C61.9072 9.40276 61.8779 9.28276 61.8192 9.19209C61.7659 9.10143 61.6939 9.03209 61.6032 8.98409C61.5179 8.93609 61.4192 8.90409 61.3072 8.88809C61.2005 8.87209 61.0939 8.86409 60.9872 8.86409C60.6992 8.86409 60.4592 8.92009 60.2672 9.03209C60.0752 9.13876 59.9712 9.34409 59.9552 9.64809H59.2752C59.2859 9.39209 59.3392 9.17609 59.4352 9.00009C59.5312 8.82409 59.6592 8.68276 59.8192 8.57609C59.9792 8.46409 60.1605 8.38409 60.3632 8.33609C60.5712 8.28809 60.7925 8.26409 61.0272 8.26409C61.2139 8.26409 61.3979 8.27743 61.5792 8.30409C61.7659 8.33076 61.9339 8.38676 62.0832 8.47209C62.2325 8.55209 62.3525 8.66676 62.4432 8.81609C62.5339 8.96543 62.5792 9.16009 62.5792 9.40009V11.5281C62.5792 11.6881 62.5872 11.8054 62.6032 11.8801C62.6245 11.9548 62.6885 11.9921 62.7952 11.9921C62.8539 11.9921 62.9232 11.9788 63.0032 11.9521V12.4801ZM61.8992 10.3601C61.8139 10.4241 61.7019 10.4721 61.5632 10.5041C61.4245 10.5308 61.2779 10.5548 61.1232 10.5761C60.9739 10.5921 60.8219 10.6134 60.6672 10.6401C60.5125 10.6614 60.3739 10.6988 60.2512 10.7521C60.1285 10.8054 60.0272 10.8828 59.9472 10.9841C59.8725 11.0801 59.8352 11.2134 59.8352 11.3841C59.8352 11.4961 59.8565 11.5921 59.8992 11.6721C59.9472 11.7468 60.0059 11.8081 60.0752 11.8561C60.1499 11.9041 60.2352 11.9388 60.3312 11.9601C60.4272 11.9814 60.5285 11.9921 60.6352 11.9921C60.8592 11.9921 61.0512 11.9628 61.2112 11.9041C61.3712 11.8401 61.5019 11.7628 61.6032 11.6721C61.7045 11.5761 61.7792 11.4748 61.8272 11.3681C61.8752 11.2561 61.8992 11.1521 61.8992 11.0561V10.3601ZM64.2921 10.4641C64.2921 10.6561 64.3161 10.8454 64.3641 11.0321C64.4174 11.2134 64.4947 11.3761 64.5961 11.5201C64.7027 11.6641 64.8361 11.7788 64.9961 11.8641C65.1614 11.9494 65.3534 11.9921 65.5721 11.9921C65.8014 11.9921 65.9961 11.9468 66.1561 11.8561C66.3161 11.7654 66.4467 11.6481 66.5481 11.5041C66.6494 11.3548 66.7214 11.1868 66.7641 11.0001C66.8121 10.8134 66.8361 10.6241 66.8361 10.4321C66.8361 10.2294 66.8121 10.0348 66.7641 9.84809C66.7161 9.65609 66.6387 9.48809 66.5321 9.34409C66.4307 9.20009 66.2974 9.08543 66.1321 9.00009C65.9667 8.90943 65.7667 8.86409 65.5321 8.86409C65.3027 8.86409 65.1081 8.90943 64.9481 9.00009C64.7881 9.09076 64.6601 9.21076 64.5641 9.36009C64.4681 9.50943 64.3987 9.68009 64.3561 9.87209C64.3134 10.0641 64.2921 10.2614 64.2921 10.4641ZM67.4921 12.4961H66.8121V11.9361H66.7961C66.6841 12.1654 66.5081 12.3308 66.2681 12.4321C66.0281 12.5334 65.7641 12.5841 65.4761 12.5841C65.1561 12.5841 64.8761 12.5254 64.6361 12.4081C64.4014 12.2908 64.2041 12.1334 64.0441 11.9361C63.8894 11.7388 63.7721 11.5094 63.6921 11.2481C63.6121 10.9868 63.5721 10.7094 63.5721 10.4161C63.5721 10.1228 63.6094 9.84543 63.6841 9.58409C63.7641 9.32276 63.8814 9.09609 64.0361 8.90409C64.1961 8.70676 64.3934 8.55209 64.6281 8.44009C64.8681 8.32276 65.1454 8.26409 65.4601 8.26409C65.5667 8.26409 65.6814 8.27476 65.8041 8.29609C65.9267 8.31743 66.0494 8.35476 66.1721 8.40809C66.2947 8.45609 66.4094 8.52276 66.5161 8.60809C66.6281 8.68809 66.7214 8.78943 66.7961 8.91209H66.8121V6.78409H67.4921V12.4961ZM71.5808 10.4321C71.5808 10.6828 71.6128 10.9068 71.6768 11.1041C71.7461 11.2961 71.8395 11.4588 71.9568 11.5921C72.0741 11.7201 72.2101 11.8188 72.3648 11.8881C72.5248 11.9574 72.6928 11.9921 72.8688 11.9921C73.0448 11.9921 73.2101 11.9574 73.3648 11.8881C73.5248 11.8188 73.6635 11.7201 73.7808 11.5921C73.8981 11.4588 73.9888 11.2961 74.0528 11.1041C74.1221 10.9068 74.1568 10.6828 74.1568 10.4321C74.1568 10.1814 74.1221 9.96009 74.0528 9.76809C73.9888 9.57076 73.8981 9.40543 73.7808 9.27209C73.6635 9.13876 73.5248 9.03743 73.3648 8.96809C73.2101 8.89876 73.0448 8.86409 72.8688 8.86409C72.6928 8.86409 72.5248 8.89876 72.3648 8.96809C72.2101 9.03743 72.0741 9.13876 71.9568 9.27209C71.8395 9.40543 71.7461 9.57076 71.6768 9.76809C71.6128 9.96009 71.5808 10.1814 71.5808 10.4321ZM70.8608 10.4321C70.8608 10.1281 70.9035 9.84543 70.9888 9.58409C71.0741 9.31743 71.2021 9.08809 71.3728 8.89609C71.5435 8.69876 71.7541 8.54409 72.0048 8.43209C72.2555 8.32009 72.5435 8.26409 72.8688 8.26409C73.1995 8.26409 73.4875 8.32009 73.7328 8.43209C73.9835 8.54409 74.1941 8.69876 74.3648 8.89609C74.5355 9.08809 74.6635 9.31743 74.7488 9.58409C74.8341 9.84543 74.8768 10.1281 74.8768 10.4321C74.8768 10.7361 74.8341 11.0188 74.7488 11.2801C74.6635 11.5414 74.5355 11.7708 74.3648 11.9681C74.1941 12.1601 73.9835 12.3121 73.7328 12.4241C73.4875 12.5308 73.1995 12.5841 72.8688 12.5841C72.5435 12.5841 72.2555 12.5308 72.0048 12.4241C71.7541 12.3121 71.5435 12.1601 71.3728 11.9681C71.2021 11.7708 71.0741 11.5414 70.9888 11.2801C70.9035 11.0188 70.8608 10.7361 70.8608 10.4321ZM75.8386 8.36009H76.4786V9.01609H76.4946C76.7772 8.51476 77.2252 8.26409 77.8386 8.26409C78.1106 8.26409 78.3372 8.30143 78.5186 8.37609C78.6999 8.45076 78.8466 8.55476 78.9586 8.68809C79.0706 8.82143 79.1479 8.98143 79.1906 9.16809C79.2386 9.34943 79.2626 9.55209 79.2626 9.77609V12.4961H78.5826V9.69609C78.5826 9.44009 78.5079 9.23743 78.3586 9.08809C78.2092 8.93876 78.0039 8.86409 77.7426 8.86409C77.5346 8.86409 77.3532 8.89609 77.1986 8.96009C77.0492 9.02409 76.9239 9.11476 76.8226 9.23209C76.7212 9.34943 76.6439 9.48809 76.5906 9.64809C76.5426 9.80276 76.5186 9.97343 76.5186 10.1601V12.4961H75.8386V8.36009ZM83.7744 8.36009H84.5984V8.96009H83.7744V11.5281C83.7744 11.6081 83.7798 11.6721 83.7904 11.7201C83.8064 11.7681 83.8331 11.8054 83.8704 11.8321C83.9078 11.8588 83.9584 11.8774 84.0224 11.8881C84.0918 11.8934 84.1798 11.8961 84.2864 11.8961H84.5984V12.4961H84.0784C83.9024 12.4961 83.7504 12.4854 83.6224 12.4641C83.4998 12.4374 83.3984 12.3921 83.3184 12.3281C83.2438 12.2641 83.1878 12.1734 83.1504 12.0561C83.1131 11.9388 83.0944 11.7841 83.0944 11.5921V8.96009H82.3904V8.36009H83.0944V7.12009H83.7744V8.36009ZM85.5139 6.78409H86.1939V8.96809H86.2099C86.2632 8.84009 86.3379 8.73343 86.4339 8.64809C86.5299 8.55743 86.6365 8.48543 86.7539 8.43209C86.8765 8.37343 87.0019 8.33076 87.1299 8.30409C87.2632 8.27743 87.3912 8.26409 87.5139 8.26409C87.7859 8.26409 88.0125 8.30143 88.1939 8.37609C88.3752 8.45076 88.5219 8.55476 88.6339 8.68809C88.7459 8.82143 88.8232 8.98143 88.8659 9.16809C88.9139 9.34943 88.9379 9.55209 88.9379 9.77609V12.4961H88.2579V9.69609C88.2579 9.44009 88.1832 9.23743 88.0339 9.08809C87.8845 8.93876 87.6792 8.86409 87.4179 8.86409C87.2099 8.86409 87.0285 8.89609 86.8739 8.96009C86.7245 9.02409 86.5992 9.11476 86.4979 9.23209C86.3965 9.34943 86.3192 9.48809 86.2659 9.64809C86.2179 9.80276 86.1939 9.97343 86.1939 10.1601V12.4961H85.5139V6.78409ZM92.9912 10.0321C92.9805 9.87209 92.9432 9.72009 92.8792 9.57609C92.8205 9.43209 92.7379 9.30943 92.6312 9.20809C92.5299 9.10143 92.4072 9.01876 92.2632 8.96009C92.1245 8.89609 91.9699 8.86409 91.7992 8.86409C91.6232 8.86409 91.4632 8.89609 91.3192 8.96009C91.1805 9.01876 91.0605 9.10143 90.9592 9.20809C90.8579 9.31476 90.7779 9.44009 90.7192 9.58409C90.6605 9.72276 90.6259 9.87209 90.6152 10.0321H92.9912ZM93.6472 11.1841C93.5565 11.6481 93.3565 11.9974 93.0472 12.2321C92.7379 12.4668 92.3485 12.5841 91.8792 12.5841C91.5485 12.5841 91.2605 12.5308 91.0152 12.4241C90.7752 12.3174 90.5725 12.1681 90.4072 11.9761C90.2419 11.7841 90.1165 11.5548 90.0312 11.2881C89.9512 11.0214 89.9059 10.7308 89.8952 10.4161C89.8952 10.1014 89.9432 9.81343 90.0392 9.55209C90.1352 9.29076 90.2685 9.06409 90.4392 8.87209C90.6152 8.68009 90.8205 8.53076 91.0552 8.42409C91.2952 8.31743 91.5565 8.26409 91.8392 8.26409C92.2072 8.26409 92.5112 8.34143 92.7512 8.49609C92.9965 8.64543 93.1912 8.83743 93.3352 9.07209C93.4845 9.30676 93.5859 9.56276 93.6392 9.84009C93.6979 10.1174 93.7219 10.3814 93.7112 10.6321H90.6152C90.6099 10.8134 90.6312 10.9868 90.6792 11.1521C90.7272 11.3121 90.8045 11.4561 90.9112 11.5841C91.0179 11.7068 91.1539 11.8054 91.3192 11.8801C91.4845 11.9548 91.6792 11.9921 91.9032 11.9921C92.1912 11.9921 92.4259 11.9254 92.6072 11.7921C92.7939 11.6588 92.9165 11.4561 92.9752 11.1841H93.6472Z" fill="white"/>
<path d="M43.7809 17.1704C45.5485 17.1704 46.7136 18.5676 46.7136 20.7259C46.7136 22.8901 45.5553 24.2805 43.8072 24.2805C42.9037 24.3278 42.0526 23.8545 41.616 23.0621H41.5829V26.5116H40.1534V17.2433H41.5371V18.4016H41.5634C42.0194 17.6141 42.8714 17.1411 43.7809 17.1704ZM51.4462 17.1704C53.2138 17.1704 54.3789 18.5676 54.3789 20.7259C54.3789 22.8901 53.2205 24.2805 51.4725 24.2805C50.569 24.3278 49.7179 23.8545 49.2812 23.0621H49.2482V26.5116H47.8186V17.2433H49.2023V18.4016H49.2286C49.6846 17.6141 50.5367 17.1411 51.4462 17.1704ZM61.7091 14.4961C63.7276 14.4961 65.1113 15.6282 65.1579 17.2763H63.7148C63.6284 16.323 62.8404 15.7476 61.6888 15.7476C60.5372 15.7476 59.7492 16.3298 59.7492 17.1771C59.7492 17.8525 60.2525 18.2499 61.4838 18.5541L62.5362 18.8125C64.4961 19.276 65.3104 20.0632 65.3104 21.4605C65.3104 23.2476 63.8868 24.3669 61.6227 24.3669C59.5043 24.3669 58.0741 23.2739 57.9817 21.5461L59.445 21.5462C59.5509 22.4934 60.4712 23.1154 61.7287 23.1154C62.9336 23.1154 63.8005 22.4934 63.8005 21.6393C63.8005 20.8978 63.2776 20.4539 62.0397 20.1496L60.8017 19.8514C59.0476 19.4277 58.2333 18.6074 58.2333 17.2763C58.2333 15.6282 59.6696 14.4961 61.7091 14.4961ZM73.79 17.1576C75.8092 17.1576 77.0938 18.5346 77.0938 20.7259C77.0938 22.9231 75.816 24.2941 73.79 24.2941C71.7647 24.2941 70.487 22.9231 70.487 20.7259C70.487 18.5346 71.7775 17.1576 73.79 17.1576ZM85.366 17.1576C87.2928 17.1576 88.5045 18.4813 88.5045 20.5929V21.0827H83.5856V21.1691C83.5397 21.6875 83.7188 22.2008 84.0772 22.5782C84.4357 22.9556 84.939 23.1609 85.4591 23.1417C86.1529 23.2067 86.8069 22.8084 87.0675 22.1621L88.4249 22.1621C88.2326 23.4264 87.0014 24.2941 85.4261 24.2941C83.4001 24.2941 82.1426 22.9366 82.1426 20.7589C82.1426 18.5744 83.4068 17.1576 85.366 17.1576ZM68.3956 15.5951V17.2433H69.7199V18.3753H68.3956V22.2147C68.3956 22.8112 68.6608 23.0891 69.2429 23.0891C69.4002 23.0864 69.5571 23.0753 69.7132 23.0561V24.1814C69.4514 24.2303 69.1854 24.2524 68.9192 24.2475C67.5092 24.2475 66.9593 23.7179 66.9593 22.3672V18.3753H65.9467V17.2433H66.9593V15.5951H68.3956ZM35.8167 14.6554L39.2655 24.2077H37.697L36.8233 21.6258H33.1822L32.3078 24.2077H30.7656L34.2144 14.6554H35.8167ZM81.3441 17.1704C81.5088 17.1698 81.6731 17.1877 81.8339 17.2237V18.5609C81.6259 18.4973 81.4089 18.4681 81.1916 18.4745C80.7713 18.4574 80.3646 18.6249 80.0782 18.933C79.7918 19.241 79.6543 19.6589 79.7019 20.0768V24.2077H78.2724V17.2433H79.6358V18.4287H79.6689C79.859 17.6656 80.5582 17.1404 81.3441 17.1704ZM73.79 18.3355C72.6316 18.3355 71.9435 19.2295 71.9435 20.7259C71.9435 22.235 72.6316 23.1154 73.79 23.1154C74.9483 23.1154 75.6372 22.235 75.6372 20.7259C75.6372 19.2227 74.9483 18.3355 73.79 18.3355ZM43.4038 18.3889C42.3116 18.3889 41.5769 19.3354 41.5769 20.7259C41.5769 22.1291 42.3116 23.0689 43.4038 23.0689C44.5156 23.0689 45.2443 22.1486 45.2443 20.7259C45.2443 19.3159 44.5156 18.3889 43.4038 18.3889ZM51.0691 18.3889C49.9769 18.3889 49.2422 19.3354 49.2422 20.7259C49.2422 22.1291 49.9769 23.0689 51.0691 23.0689C52.1809 23.0689 52.9096 22.1486 52.9096 20.7259C52.9096 19.3159 52.1809 18.3889 51.0691 18.3889ZM35.0227 16.2442H34.9829L33.5593 20.4344H36.4455L35.0227 16.2442ZM85.366 18.316C84.8958 18.3132 84.4439 18.4983 84.1109 18.8302C83.7778 19.1622 83.5912 19.6134 83.5924 20.0836H87.0742C87.1002 19.6177 86.9306 19.1621 86.6063 18.8265C86.282 18.491 85.8325 18.306 85.366 18.316Z" fill="white"/>
</svg>
