<svg width="25" height="24" viewBox="0 0 25 24" fill="none" xmlns="http://www.w3.org/2000/svg">
<path d="M0.5 12C0.5 5.37258 5.87258 0 12.5 0C19.1274 0 24.5 5.37258 24.5 12C24.5 18.6274 19.1274 24 12.5 24C5.87258 24 0.5 18.6274 0.5 12Z" fill="#A3A3A3"/>
<g clip-path="url(#clip0_4844_54009)">
<rect x="5.83594" y="5.33203" width="13.3333" height="13.3333" rx="6.66667" fill="white"/>
<path d="M15.0951 13.9271L15.3906 12H13.5417V10.75C13.5417 10.2227 13.7995 9.70833 14.6276 9.70833H15.4688V8.06771C15.4688 8.06771 14.7057 7.9375 13.9766 7.9375C12.4531 7.9375 11.4583 8.86068 11.4583 10.5313V12H9.76562V13.9271H11.4583V18.5859C11.7982 18.6393 12.1458 18.6667 12.5 18.6667C12.8542 18.6667 13.2018 18.6393 13.5417 18.5859V13.9271H15.0951Z" fill="#A3A3A3"/>
</g>
<defs>
<clipPath id="clip0_4844_54009">
<rect x="5.83594" y="5.33203" width="13.3333" height="13.3333" rx="6.66667" fill="white"/>
</clipPath>
</defs>
</svg>
