<svg width="100" height="32" viewBox="0 0 100 32" fill="none" xmlns="http://www.w3.org/2000/svg">
<rect y="0.265625" width="100" height="30.7692" rx="6" fill="black"/>
<path fill-rule="evenodd" clip-rule="evenodd" d="M7.25382 6.07101C7.02998 6.30793 6.89844 6.67486 6.89844 7.15101V24.1495C6.89844 24.6256 7.02998 24.9925 7.25382 25.2295L7.31075 25.2849L16.8331 15.7625V15.5379L7.31075 6.01562L7.25382 6.07101Z" fill="#00D7FE"/>
<mask id="mask0_4844_53977" style="mask-type:alpha" maskUnits="userSpaceOnUse" x="16" y="12" width="9" height="7">
<path d="M20.009 18.9379L16.8359 15.7625V15.5379L20.0106 12.3633L23.8429 14.5402C24.9167 15.151 24.9167 16.1494 23.8429 16.7594L20.0821 18.8964L20.009 18.9379Z" fill="white"/>
</mask>
<g mask="url(#mask0_4844_53977)">
<path fill-rule="evenodd" clip-rule="evenodd" d="M20.009 18.9379L16.8359 15.7625V15.5379L20.0106 12.3633L23.8429 14.5402C24.9167 15.151 24.9167 16.1494 23.8429 16.7594L20.0821 18.8964L20.009 18.9379Z" fill="url(#paint0_linear_4844_53977)"/>
</g>
<mask id="mask1_4844_53977" style="mask-type:alpha" maskUnits="userSpaceOnUse" x="7" y="15" width="14" height="11">
<path d="M20.0754 18.8946L16.8292 15.6484L7.25 25.2277C7.60462 25.6023 8.18923 25.6484 8.84769 25.2746L20.0754 18.8946Z" fill="white"/>
</mask>
<g mask="url(#mask1_4844_53977)">
<path fill-rule="evenodd" clip-rule="evenodd" d="M20.0754 18.8946L16.8292 15.6484L7.25 25.2277C7.60462 25.6023 8.18923 25.6484 8.84769 25.2746L20.0754 18.8946Z" fill="url(#paint1_linear_4844_53977)"/>
</g>
<mask id="mask2_4844_53977" style="mask-type:alpha" maskUnits="userSpaceOnUse" x="7" y="5" width="14" height="11">
<path d="M20.0754 12.4039L8.84769 6.02392C8.18923 5.65007 7.60462 5.69623 7.25 6.07084L16.8292 15.6501L20.0754 12.4039Z" fill="white"/>
</mask>
<g mask="url(#mask2_4844_53977)">
<path fill-rule="evenodd" clip-rule="evenodd" d="M20.0754 12.4039L8.84769 6.02392C8.18923 5.65007 7.60462 5.69623 7.25 6.07084L16.8292 15.6501L20.0754 12.4039Z" fill="url(#paint2_linear_4844_53977)"/>
</g>
<path fill-rule="evenodd" clip-rule="evenodd" d="M79.9221 24.0771H81.3575V14.461H79.9221V24.0771ZM92.8505 17.9248L91.2051 22.094H91.1559L89.4482 17.9248H87.9021L90.4628 23.7517L89.0028 26.9933H90.5005L94.4467 17.9248H92.8505ZM84.7105 22.9848C84.2398 22.9848 83.5844 22.7502 83.5844 22.1687C83.5844 21.4264 84.4013 21.1417 85.1059 21.1417C85.7375 21.1417 86.0336 21.2779 86.4174 21.4633C86.3059 22.3541 85.539 22.9848 84.7105 22.9848ZM84.8836 17.7148C83.8444 17.7148 82.7682 18.1725 82.3228 19.1871L83.5967 19.7187C83.869 19.1871 84.3759 19.0133 84.9082 19.0133C85.6505 19.0133 86.4051 19.4587 86.4174 20.251V20.3494C86.1575 20.201 85.6013 19.9787 84.9205 19.9787C83.5475 19.9787 82.149 20.7333 82.149 22.1433C82.149 23.4302 83.2751 24.2594 84.5367 24.2594C85.5021 24.2594 86.0336 23.8264 86.3682 23.3187H86.4174V24.061H87.8028V20.3748C87.8028 18.6671 86.529 17.7148 84.8836 17.7148ZM76.0128 19.0956H73.9713V15.7994H76.0128C77.0859 15.7994 77.6951 16.6879 77.6951 17.4471C77.6951 18.1925 77.0859 19.0956 76.0128 19.0956ZM75.9759 14.461H72.5367V24.0771H73.9713V20.434H75.9759C77.5667 20.434 79.1305 19.2817 79.1305 17.4471C79.1305 15.6125 77.5667 14.461 75.9759 14.461ZM57.2213 22.9864C56.2298 22.9864 55.3998 22.1564 55.3998 21.0164C55.3998 19.8641 56.2298 19.021 57.2213 19.021C58.2005 19.021 58.9682 19.8641 58.9682 21.0164C58.9682 22.1564 58.2005 22.9864 57.2213 22.9864ZM58.869 18.4633H58.8198C58.4975 18.0794 57.8782 17.7325 57.0975 17.7325C55.4613 17.7325 53.9621 19.1694 53.9621 21.0164C53.9621 22.8502 55.4613 24.2756 57.0975 24.2756C57.8782 24.2756 58.4975 23.9287 58.8198 23.5317H58.869V24.0025C58.869 25.2548 58.2005 25.924 57.1221 25.924C56.2421 25.924 55.6967 25.2917 55.4736 24.7587L54.2221 25.2794C54.5813 26.1471 55.5359 27.2125 57.1221 27.2125C58.8075 27.2125 60.2328 26.221 60.2328 23.8048V17.9302H58.869V18.4633ZM61.2244 24.0771H62.6621V14.4602H61.2244V24.0771ZM64.7805 20.9048C64.7436 19.641 65.7598 18.9964 66.4905 18.9964C67.0613 18.9964 67.5444 19.281 67.7051 19.6902L64.7805 20.9048ZM69.2421 19.814C68.9698 19.0833 68.139 17.7325 66.4413 17.7325C64.7559 17.7325 63.3559 19.0579 63.3559 21.0041C63.3559 22.8379 64.7436 24.2756 66.6021 24.2756C68.1021 24.2756 68.9698 23.3587 69.329 22.8256L68.2136 22.0817C67.8421 22.6271 67.3336 22.9864 66.6021 22.9864C65.8713 22.9864 65.3505 22.6517 65.0159 21.9956L69.3905 20.1864L69.2421 19.814ZM34.3898 18.7364V20.124H37.7105C37.6113 20.9048 37.3513 21.4748 36.9551 21.8717C36.4713 22.3548 35.7151 22.8871 34.3898 22.8871C32.3451 22.8871 30.7459 21.2394 30.7459 19.1948C30.7459 17.1494 32.3451 15.5017 34.3898 15.5017C35.4928 15.5017 36.2982 15.9356 36.8928 16.4933L37.8721 15.5141C37.0413 14.721 35.939 14.1133 34.3898 14.1133C31.589 14.1133 29.2344 16.3941 29.2344 19.1948C29.2344 21.9956 31.589 24.2756 34.3898 24.2756C35.9013 24.2756 37.0413 23.7802 37.9336 22.8502C38.8505 21.9333 39.1359 20.6448 39.1359 19.6033C39.1359 19.281 39.1113 18.9841 39.0613 18.7364H34.3898ZM42.9121 22.9864C41.9205 22.9864 41.0651 22.1687 41.0651 21.0041C41.0651 19.8264 41.9205 19.021 42.9121 19.021C43.9028 19.021 44.7582 19.8264 44.7582 21.0041C44.7582 22.1687 43.9028 22.9864 42.9121 22.9864ZM42.9121 17.7325C41.1021 17.7325 39.6275 19.1079 39.6275 21.0041C39.6275 22.8871 41.1021 24.2756 42.9121 24.2756C44.7213 24.2756 46.1959 22.8871 46.1959 21.0041C46.1959 19.1079 44.7213 17.7325 42.9121 17.7325ZM50.0759 22.9864C49.0844 22.9864 48.229 22.1687 48.229 21.0041C48.229 19.8264 49.0844 19.021 50.0759 19.021C51.0675 19.021 51.9221 19.8264 51.9221 21.0041C51.9221 22.1687 51.0675 22.9864 50.0759 22.9864ZM50.0759 17.7325C48.2667 17.7325 46.7921 19.1079 46.7921 21.0041C46.7921 22.8871 48.2667 24.2756 50.0759 24.2756C51.8851 24.2756 53.3598 22.8871 53.3598 21.0041C53.3598 19.1079 51.8851 17.7325 50.0759 17.7325Z" fill="#FFFFFE"/>
<path d="M34.0977 8.28125V10.3633C34.0273 10.4674 33.9154 10.5846 33.7617 10.7148C33.6081 10.8424 33.3958 10.9544 33.125 11.0508C32.8568 11.1445 32.5104 11.1914 32.0859 11.1914C31.7396 11.1914 31.4206 11.1315 31.1289 11.0117C30.8398 10.8893 30.5885 10.7122 30.375 10.4805C30.1641 10.2461 30 9.96224 29.8828 9.62891C29.7682 9.29297 29.7109 8.91276 29.7109 8.48828V8.04688C29.7109 7.6224 29.7604 7.24349 29.8594 6.91016C29.9609 6.57682 30.1094 6.29427 30.3047 6.0625C30.5 5.82812 30.7396 5.65104 31.0234 5.53125C31.3073 5.40885 31.6328 5.34766 32 5.34766C32.4349 5.34766 32.7982 5.42318 33.0898 5.57422C33.3841 5.72266 33.6133 5.92839 33.7773 6.19141C33.944 6.45443 34.0508 6.75391 34.0977 7.08984H33.3438C33.3099 6.88411 33.2422 6.69661 33.1406 6.52734C33.0417 6.35807 32.8997 6.22266 32.7148 6.12109C32.5299 6.01693 32.2917 5.96484 32 5.96484C31.737 5.96484 31.5091 6.01302 31.3164 6.10938C31.1237 6.20573 30.9648 6.34375 30.8398 6.52344C30.7148 6.70312 30.6211 6.92057 30.5586 7.17578C30.4987 7.43099 30.4688 7.71875 30.4688 8.03906V8.48828C30.4688 8.81641 30.5065 9.10938 30.582 9.36719C30.6602 9.625 30.7708 9.84505 30.9141 10.0273C31.0573 10.207 31.2279 10.3438 31.4258 10.4375C31.6263 10.5312 31.8477 10.5781 32.0898 10.5781C32.3581 10.5781 32.5755 10.556 32.7422 10.5117C32.9089 10.4648 33.0391 10.4102 33.1328 10.3477C33.2266 10.2826 33.2982 10.2214 33.3477 10.1641V8.89062H32.0312V8.28125H34.0977ZM38.7209 10.5V11.1133H35.7092V10.5H38.7209ZM35.8616 5.42578V11.1133H35.1077V5.42578H35.8616ZM38.3225 7.87109V8.48438H35.7092V7.87109H38.3225ZM38.6819 5.42578V6.04297H35.7092V5.42578H38.6819ZM41.5942 5.42578V11.1133H40.852V5.42578H41.5942ZM43.4223 5.42578V6.04297H39.0278V5.42578H43.4223ZM46.4228 5.42578V11.1133H45.6689V5.42578H46.4228ZM49.5383 5.42578V11.1133H48.7961V5.42578H49.5383ZM51.3664 5.42578V6.04297H46.9719V5.42578H51.3664ZM57.9372 8.08984V8.44922C57.9372 8.8763 57.8838 9.25911 57.777 9.59766C57.6703 9.9362 57.5166 10.224 57.3161 10.4609C57.1156 10.6979 56.8747 10.8789 56.5934 11.0039C56.3148 11.1289 56.0023 11.1914 55.6559 11.1914C55.32 11.1914 55.0114 11.1289 54.7302 11.0039C54.4515 10.8789 54.2093 10.6979 54.0036 10.4609C53.8005 10.224 53.6429 9.9362 53.5309 9.59766C53.419 9.25911 53.363 8.8763 53.363 8.44922V8.08984C53.363 7.66276 53.4177 7.28125 53.527 6.94531C53.639 6.60677 53.7966 6.31901 53.9997 6.08203C54.2028 5.84245 54.4437 5.66016 54.7223 5.53516C55.0036 5.41016 55.3122 5.34766 55.6481 5.34766C55.9945 5.34766 56.307 5.41016 56.5856 5.53516C56.8669 5.66016 57.1078 5.84245 57.3083 6.08203C57.5114 6.31901 57.6664 6.60677 57.7731 6.94531C57.8825 7.28125 57.9372 7.66276 57.9372 8.08984ZM57.1911 8.44922V8.08203C57.1911 7.74349 57.1559 7.44401 57.0856 7.18359C57.0179 6.92318 56.9177 6.70443 56.7848 6.52734C56.652 6.35026 56.4893 6.21615 56.2966 6.125C56.1065 6.03385 55.8903 5.98828 55.6481 5.98828C55.4137 5.98828 55.2015 6.03385 55.0114 6.125C54.8239 6.21615 54.6624 6.35026 54.527 6.52734C54.3942 6.70443 54.2914 6.92318 54.2184 7.18359C54.1455 7.44401 54.1091 7.74349 54.1091 8.08203V8.44922C54.1091 8.79036 54.1455 9.09245 54.2184 9.35547C54.2914 9.61589 54.3955 9.83594 54.5309 10.0156C54.669 10.1927 54.8317 10.3268 55.0192 10.418C55.2093 10.5091 55.4216 10.5547 55.6559 10.5547C55.9007 10.5547 56.1182 10.5091 56.3083 10.418C56.4984 10.3268 56.6585 10.1927 56.7887 10.0156C56.9216 9.83594 57.0218 9.61589 57.0895 9.35547C57.1572 9.09245 57.1911 8.79036 57.1911 8.44922ZM63.2011 5.42578V11.1133H62.4433L59.58 6.72656V11.1133H58.8261V5.42578H59.58L62.455 9.82422V5.42578H63.2011Z" fill="white"/>
<defs>
<linearGradient id="paint0_linear_4844_53977" x1="23.1442" y1="15.6504" x2="16.8359" y2="15.6504" gradientUnits="userSpaceOnUse">
<stop stop-color="#FFBC00"/>
<stop offset="1" stop-color="#FFDA03"/>
</linearGradient>
<linearGradient id="paint1_linear_4844_53977" x1="18.3112" y1="18.7029" x2="10.0778" y2="25.4895" gradientUnits="userSpaceOnUse">
<stop stop-color="#E22652"/>
<stop offset="1" stop-color="#FF3A44"/>
</linearGradient>
<linearGradient id="paint2_linear_4844_53977" x1="8.70051" y1="7.22405" x2="14.1899" y2="12.0509" gradientUnits="userSpaceOnUse">
<stop stop-color="#0ED574"/>
<stop offset="1" stop-color="#07F076"/>
</linearGradient>
</defs>
</svg>
