<svg width="25" height="24" viewBox="0 0 25 24" fill="none" xmlns="http://www.w3.org/2000/svg">
<path d="M0.5 12C0.5 5.37258 5.87258 0 12.5 0C19.1274 0 24.5 5.37258 24.5 12C24.5 18.6274 19.1274 24 12.5 24C5.87258 24 0.5 18.6274 0.5 12Z" fill="#A3A3A3"/>
<path d="M19.1317 9.24983C19.0997 8.53993 18.985 8.05421 18.8223 7.62987C18.6516 7.19219 18.4249 6.81855 18.0542 6.45026C17.6835 6.08196 17.3127 5.84978 16.8753 5.68164C16.4512 5.51618 15.9658 5.40409 15.2563 5.37206C14.5442 5.34004 14.3174 5.33203 12.5091 5.33203C10.6981 5.33203 10.4713 5.34004 9.76187 5.37206C9.05239 5.40409 8.56696 5.51885 8.14288 5.68164C7.70279 5.85245 7.32938 6.0793 6.96131 6.45026C6.59323 6.82122 6.36119 7.19219 6.19315 7.62987C6.03045 8.05421 5.91576 8.53993 5.88376 9.24983C5.85175 9.9624 5.84375 10.1893 5.84375 11.9987C5.84375 13.8108 5.85175 14.0377 5.88376 14.7476C5.91576 15.4575 6.03045 15.9432 6.19315 16.3675C6.36385 16.8052 6.59057 17.1788 6.96131 17.5471C7.32938 17.9181 7.70279 18.1476 8.14021 18.3158C8.56429 18.4812 9.04972 18.5933 9.7592 18.6253C10.4713 18.6574 10.6981 18.6654 12.5064 18.6654C14.3174 18.6654 14.5442 18.6574 15.2536 18.6253C15.9631 18.5933 16.4485 18.4785 16.8726 18.3158C17.31 18.1449 17.6835 17.9181 18.0515 17.5471C18.4196 17.1762 18.6516 16.8052 18.8197 16.3675C18.985 15.9432 19.0971 15.4575 19.1291 14.7476C19.1611 14.035 19.1691 13.8081 19.1691 11.9987C19.1691 10.1893 19.1637 9.95973 19.1317 9.24983ZM17.9342 14.6942C17.9048 15.3454 17.7955 15.7003 17.7048 15.9325C17.5848 16.2421 17.4381 16.4663 17.2034 16.7011C16.9686 16.936 16.7473 17.0774 16.4352 17.2029C16.2005 17.2936 15.8457 17.403 15.1976 17.4324C14.4961 17.4644 14.2854 17.4724 12.5037 17.4724C10.7221 17.4724 10.5113 17.4644 9.80988 17.4324C9.15908 17.403 8.80434 17.2936 8.5723 17.2029C8.2629 17.0828 8.03886 16.936 7.80414 16.7011C7.56943 16.4663 7.42807 16.2448 7.30271 15.9325C7.21202 15.6977 7.10267 15.3427 7.07333 14.6942C7.04132 13.9923 7.03332 13.7815 7.03332 11.9987C7.03332 10.2159 7.04132 10.0051 7.07333 9.30321C7.10267 8.65202 7.21202 8.29707 7.30271 8.06488C7.42273 7.7553 7.56943 7.53112 7.80414 7.29627C8.03886 7.06142 8.26023 6.91997 8.5723 6.79453C8.80701 6.7038 9.16175 6.59437 9.80988 6.56502C10.5113 6.53299 10.7221 6.52499 12.5037 6.52499C14.2854 6.52499 14.4961 6.53299 15.1976 6.56502C15.8484 6.59437 16.2032 6.7038 16.4352 6.79453C16.7446 6.91463 16.9686 7.06142 17.2034 7.29627C17.4381 7.53112 17.5794 7.75263 17.7048 8.06488C17.7955 8.29974 17.9048 8.65469 17.9342 9.30321C17.9662 10.0051 17.9742 10.2159 17.9742 11.9987C17.9742 13.7815 17.9635 13.9923 17.9342 14.6942Z" fill="white"/>
<path d="M12.5028 8.57031C10.6091 8.57031 9.07812 10.1049 9.07812 11.9971C9.07812 13.8919 10.6118 15.4238 12.5028 15.4238C14.3939 15.4238 15.9275 13.8866 15.9275 11.9971C15.9275 10.1022 14.3965 8.57031 12.5028 8.57031ZM12.5028 14.2202C11.2759 14.2202 10.281 13.2247 10.281 11.9971C10.281 10.7694 11.2759 9.77394 12.5028 9.77394C13.7297 9.77394 14.7246 10.7694 14.7246 11.9971C14.7246 13.2247 13.7297 14.2202 12.5028 14.2202Z" fill="white"/>
<path d="M16.058 9.238C16.4999 9.238 16.8581 8.87954 16.8581 8.43736C16.8581 7.99518 16.4999 7.63672 16.058 7.63672C15.6161 7.63672 15.2578 7.99518 15.2578 8.43736C15.2578 8.87954 15.6161 9.238 16.058 9.238Z" fill="white"/>
<path d="M5.83594 11.9987C5.83594 13.8108 5.84394 14.0377 5.87595 14.7476C5.90795 15.4575 6.02264 15.9432 6.18534 16.3675C6.35604 16.8052 6.58275 17.1788 6.95349 17.5471C7.32157 17.9154 7.69498 18.1476 8.1324 18.3158C8.55648 18.4812 9.04191 18.5933 9.75139 18.6253C10.4635 18.6574 10.6902 18.6654 12.4986 18.6654C14.3096 18.6654 14.5363 18.6574 15.2458 18.6253C15.9553 18.5933 16.4407 18.4785 16.8648 18.3158C17.3022 18.1449 17.6756 17.9181 18.0437 17.5471C18.4118 17.1788 18.6438 16.8052 18.8119 16.3675C18.9772 15.9432 19.0893 15.4575 19.1213 14.7476C19.1533 14.035 19.1613 13.8081 19.1613 11.9987C19.1613 10.1866 19.1533 9.95973 19.1213 9.24983C19.0893 8.53993 18.9746 8.05421 18.8119 7.62987C18.6412 7.19219 18.4145 6.81855 18.0437 6.45026C17.6783 6.0793 17.3049 5.84978 16.8675 5.68164C16.4434 5.51618 15.958 5.40409 15.2485 5.37206C14.5363 5.34004 14.3096 5.33203 12.5013 5.33203C10.6902 5.33203 10.4635 5.34004 9.75405 5.37206C9.04458 5.40409 8.55915 5.51885 8.13506 5.68164C7.69764 5.85245 7.32424 6.0793 6.95616 6.45026C6.58809 6.82122 6.35604 7.19219 6.18801 7.62987C6.02264 8.05421 5.90795 8.53993 5.87595 9.24983C5.84394 9.95973 5.83594 10.1866 5.83594 11.9987ZM7.03884 11.9987C7.03884 10.2186 7.04685 10.0051 7.07885 9.30321C7.10819 8.65202 7.21755 8.29707 7.30823 8.06488C7.42826 7.7553 7.57495 7.53112 7.80967 7.29627C8.04438 7.06142 8.26576 6.91997 8.57782 6.79453C8.81253 6.7038 9.16727 6.59437 9.8154 6.56502C10.5169 6.53299 10.7276 6.52499 12.5093 6.52499C14.291 6.52499 14.5017 6.53299 15.2031 6.56502C15.8539 6.59437 16.2087 6.7038 16.4407 6.79453C16.7501 6.91463 16.9742 7.06142 17.2089 7.29627C17.4436 7.53112 17.585 7.75263 17.7103 8.06488C17.801 8.29974 17.9104 8.65469 17.9397 9.30321C17.9717 10.0051 17.9797 10.2159 17.9797 11.9987C17.9797 13.7815 17.9717 13.9923 17.9397 14.6942C17.9104 15.3454 17.801 15.7003 17.7103 15.9325C17.5903 16.2421 17.4436 16.4663 17.2089 16.7011C16.9742 16.936 16.7528 17.0774 16.4407 17.2029C16.206 17.2936 15.8513 17.403 15.2031 17.4324C14.5017 17.4644 14.291 17.4724 12.5093 17.4724C10.7276 17.4724 10.5169 17.4644 9.8154 17.4324C9.1646 17.403 8.80987 17.2936 8.57782 17.2029C8.26842 17.0828 8.04438 16.936 7.80967 16.7011C7.57495 16.4663 7.43359 16.2448 7.30823 15.9325C7.21755 15.6977 7.10819 15.3427 7.07885 14.6942C7.04418 13.9923 7.03884 13.7788 7.03884 11.9987Z" fill="white"/>
</svg>
