<svg width="25" height="24" viewBox="0 0 25 24" fill="none" xmlns="http://www.w3.org/2000/svg">
<path d="M0.5 12C0.5 5.37258 5.87258 0 12.5 0C19.1274 0 24.5 5.37258 24.5 12C24.5 18.6274 19.1274 24 12.5 24C5.87258 24 0.5 18.6274 0.5 12Z" fill="#A3A3A3"/>
<path d="M13.9089 11.4669L18.128 6.66797H17.1282L13.4648 10.8348L10.5388 6.66797H7.16406L11.5887 12.9689L7.16406 18.0013H8.16391L12.0326 13.601L15.1226 18.0013H18.4974L13.9087 11.4669H13.9089ZM12.5395 13.0244L12.0912 12.397L8.52417 7.40445H10.0599L12.9385 11.4336L13.3868 12.061L17.1287 17.2983H15.593L12.5395 13.0247V13.0244Z" fill="white"/>
</svg>
