<svg width="25" height="24" viewBox="0 0 25 24" fill="none" xmlns="http://www.w3.org/2000/svg">
<path d="M0.5 12C0.5 5.37258 5.87258 0 12.5 0C19.1274 0 24.5 5.37258 24.5 12C24.5 18.6274 19.1274 24 12.5 24C5.87258 24 0.5 18.6274 0.5 12Z" fill="#A3A3A3"/>
<path d="M18.8946 8.79276C18.7409 8.22165 18.2906 7.77135 17.7195 7.61759C16.6761 7.33203 12.5026 7.33203 12.5026 7.33203C12.5026 7.33203 8.32906 7.33203 7.28568 7.6066C6.72555 7.76037 6.26427 8.22165 6.11051 8.79276C5.83594 9.83614 5.83594 11.9998 5.83594 11.9998C5.83594 11.9998 5.83594 14.1744 6.11051 15.2068C6.26427 15.7779 6.71457 16.2282 7.28568 16.382C8.34005 16.6675 12.5026 16.6675 12.5026 16.6675C12.5026 16.6675 16.6761 16.6675 17.7195 16.3929C18.2906 16.2392 18.7409 15.7889 18.8946 15.2178C19.1692 14.1744 19.1692 12.0108 19.1692 12.0108C19.1692 12.0108 19.1802 9.83614 18.8946 8.79276Z" fill="#FEFEFE"/>
<path d="M11.0234 9.77734V14.2219L14.7272 11.9996L11.0234 9.77734Z" fill="#A3A3A3"/>
</svg>
