<?xml version="1.0" encoding="UTF-8"?>
<svg id="Layer_1" data-name="Layer 1" xmlns="http://www.w3.org/2000/svg" version="1.1" viewBox="0 0 203.3 54.3">
  <defs>
    <style>
      .cls-1 {
        fill: #231f20;
        stroke-width: 0px;
      }
    </style>
  </defs>
  <g id="Group_1" data-name="Group 1">
    <path id="Path_1" data-name="Path 1" class="cls-1" d="M156.9,50.8v-31.3c.1-1.9-.5-3.9-1.8-5.3-1.5-1.4-3.4-2.1-5.5-2-.2,0-.4,0-.6,0v31.3c-.1,1.9.5,3.9,1.8,5.3,1.5,1.4,3.4,2.1,5.4,2,.2,0,.4,0,.6,0h0ZM157.7,4.6c0-2.6-2.1-4.6-4.7-4.6-2.6,0-4.6,2.1-4.6,4.7,0,2.6,2.1,4.6,4.6,4.6,2.6,0,4.6-2.1,4.6-4.6,0,0,0,0,0,0ZM134.1,35.6v7.9c-.1,1.9.5,3.9,1.8,5.3,1.5,1.4,3.4,2.1,5.4,2,.2,0,.4,0,.6,0v-16.8c0-7.2-2-12.1-5.5-15.9-3.6-3.9-9-6.1-15.3-6.1-12,0-20.3,8.8-20.3,20.2s7.7,18.8,17.7,18.8,12.3-4.6,12.3-10c0-2.2-.7-4.4-2-6.2-1.1,5.8-4.3,9-9.4,9s-10.3-4.2-10.3-11.8,4.8-12.6,12.1-12.6c3.3,0,6.4,1.2,8.8,3.4,2.6,2.6,4.1,6.5,4.1,12.7h0ZM195.5,40.4c0,0-.2,0-.2-.1-5.6-7.3-16-20.9-18.2-23.8-2.4-3.1-4.2-4.1-6.7-4.1-1.6,0-3.2.6-4.3,1.7-1.2,1.5-1.8,3.3-1.7,5.2v24.2c-.1,1.9.5,3.9,1.8,5.3,1.4,1.4,3.3,2.1,5.3,2,.1,0,.3,0,.4,0v-27.8c0-.2,0-.3.2-.3s.2,0,.2.2c3.3,4.3,15.9,20.7,18.3,23.8,2.4,3.1,4.2,4.1,6.7,4.1,1.6,0,3.2-.6,4.3-1.7,1.2-1.5,1.8-3.3,1.7-5.2v-24.2c.1-1.9-.5-3.9-1.8-5.3-1.4-1.4-3.4-2.1-5.3-2-.2,0-.3,0-.4,0v27.8c0,.2,0,.3-.2.3h0ZM71.8,43.3c-.3,0-.5-.1-.5-.3,0-.2.1-.3.3-.4,2.4-2,18.4-14.8,20.8-16.8,4.2-3.4,5.1-5.1,5.1-7.5,0-1.5-.7-2.9-1.8-3.9-1.3-1.1-3.2-1.7-6.3-1.7h-27.2v.4c0,1.4.3,2.8,1,4,1.1,1.6,3.2,2.5,6,2.5h17.9c.3,0,.5,0,.5.3s0,.2-.3.4c-2.5,2-17.3,13.9-21,16.9-4.2,3.4-5.1,5.1-5.1,7.5,0,1.5.7,2.9,1.8,3.8,1.3,1.1,3.2,1.7,6.3,1.7h28.5v-.3c.1-1.8-.5-3.6-1.8-4.9-1.4-1.3-3.2-1.7-6.6-1.7h-17.7Z"/>
    <path id="Path_2" data-name="Path 2" class="cls-1" d="M43.4,20.3c0-4.5-3.5-8-8.5-7.6-10.6.8-11.9,12.8-5,13.6,7.2.8,9.8-6.8,9.9-7.2M39.8,19c0,.5.4,11-10.3,11-4.6,0-8.3-3.6-8.4-8.2,0,0,0-.2,0-.3,0-5.8,5.7-11.6,13.6-11.9,4.5-.2,7.4.9,9.7,3.2,4.7,4.7,3.3,13.5-.5,17.9-6,6.9-14.5,8.7-22.4,5.1s-10.7-13.8-6-22.4c1.8-3.2,8.2-10.2,19.2-10.2s21.1,9.9,19.8,21.5c-1,8.9-6.4,15.4-8.9,18.1-11,12-27.2,14.4-37.5,8.1C2.5,47.6-.7,41.1.1,34.4c.5,5,3.2,9.4,7.3,12.2,8.4,5.7,22.3,6.5,32.4-4.6-10.1,7.6-22,7.5-30.1,2.2C2.3,39.4.3,29.8,3.9,20.2c-1.8,8.5,1.1,16.4,7.5,20.5,10,6.4,24.7,2.7,33.9-7.6,3.1-3.5,4.8-7.9,4.9-12.6-.1-7.2-5.1-13.7-15.3-13.7s-17.6,8.1-17.6,14.8,5.1,11.7,11.8,11.7c6.6,0,14.3-4.2,14.3-13l-3.6-1.2Z"/>
  </g>
</svg>